HIERARCHY
ROOT root
{
	OFFSET	0	13.1	24.9
	CHANNELS 6  Xposition Yposition Zposition Xrotation Yrotation Zrotation
	JOINT spine_1
	{
		OFFSET	0	9.99999	0
		CHANNELS 3  Xrotation Yrotation Zrotation
		JOINT spine_2
		{
			OFFSET	0	112	-10
			CHANNELS 3  Xrotation Yrotation Zrotation
			JOINT spine_3
			{
				OFFSET	0	206.5	19.3
				CHANNELS 3  Xrotation Yrotation Zrotation
				JOINT spine_4
				{
					OFFSET	0	110.4	14.6
					CHANNELS 3  Xrotation Yrotation Zrotation
					JOINT neck_1
					{
						OFFSET	0	71.8	-50.3
						CHANNELS 3  Xrotation Yrotation Zrotation
						JOINT neck_2
						{
							OFFSET	0	86.2	-25.8
							CHANNELS 3  Xrotation Yrotation Zrotation
							JOINT head_ee
							{
								OFFSET	0	179.8	-8.7
								CHANNELS 3  Xrotation Yrotation Zrotation
								End Site
								{
									OFFSET	1	0	0
								}
							}
						}
					}
					JOINT left_clavicle
					{
						OFFSET	-43.2	22.4	-70.8
						CHANNELS 3  Xrotation Yrotation Zrotation
						JOINT left_shoulder
						{
							OFFSET	-93.9	-5.79999	48.7
							CHANNELS 3  Xrotation Yrotation Zrotation
							JOINT left_elbow
							{
								OFFSET	-291.4	-30.8	15.2
								CHANNELS 3  Xrotation Yrotation Zrotation
								JOINT left_lowarm_twist
								{
									OFFSET	-110.7	-3.89999	13.6
									CHANNELS 3  Xrotation Yrotation Zrotation
									JOINT left_hand
									{
										OFFSET	-110.7	-3.89999	13.6
										CHANNELS 3  Xrotation Yrotation Zrotation
										JOINT left_ee
										{
											OFFSET	-80.8	-5.10001	12.1
											CHANNELS 3  Xrotation Yrotation Zrotation
											End Site
											{
												OFFSET	1	0	0
											}
										}
									}
								}
							}
						}
					}
					JOINT right_clavicle
					{
						OFFSET	43.2	22.4	-70.8
						CHANNELS 3  Xrotation Yrotation Zrotation
						JOINT right_shoulder
						{
							OFFSET	93.9	-5.79999	48.7
							CHANNELS 3  Xrotation Yrotation Zrotation
							JOINT right_elbow
							{
								OFFSET	291.4	-30.8	15.2
								CHANNELS 3  Xrotation Yrotation Zrotation
								JOINT right_lowarm_twist
								{
									OFFSET	110.7	-3.89999	13.6
									CHANNELS 3  Xrotation Yrotation Zrotation
									JOINT right_hand
									{
										OFFSET	110.7	-3.89999	13.6
										CHANNELS 3  Xrotation Yrotation Zrotation
										JOINT right_ee
										{
											OFFSET	80.8	-5.10001	12.1
											CHANNELS 3  Xrotation Yrotation Zrotation
											End Site
											{
												OFFSET	1	0	0
											}
										}
									}
								}
							}
						}
					}
				}
			}
		}
	}
	JOINT left_hip
	{
		OFFSET	-82.8	-127.5	0.300001
		CHANNELS 3  Xrotation Yrotation Zrotation
		JOINT left_knee
		{
			OFFSET	-28.2	-396.7	2.2
			CHANNELS 3  Xrotation Yrotation Zrotation
			JOINT left_ankle
			{
				OFFSET	-11.7	-411.3	35.4
				CHANNELS 3  Xrotation Yrotation Zrotation
				JOINT left_toes
				{
					OFFSET	0	-60	-88.6
					CHANNELS 3  Xrotation Yrotation Zrotation
					JOINT left_foot_ee
					{
						OFFSET	-22.5	-16.5	-42.2
						CHANNELS 3  Xrotation Yrotation Zrotation
						End Site
						{
							OFFSET	1	0	0
						}
					}
				}
			}
		}
	}
	JOINT right_hip
	{
		OFFSET	82.8	-127.5	0.300001
		CHANNELS 3  Xrotation Yrotation Zrotation
		JOINT right_knee
		{
			OFFSET	28.2	-396.7	2.2
			CHANNELS 3  Xrotation Yrotation Zrotation
			JOINT right_ankle
			{
				OFFSET	11.7	-411.3	35.4
				CHANNELS 3  Xrotation Yrotation Zrotation
				JOINT right_toes
				{
					OFFSET	0	-60	-88.6
					CHANNELS 3  Xrotation Yrotation Zrotation
					JOINT right_foot_ee
					{
						OFFSET	22.5	-16.5	-42.2
						CHANNELS 3  Xrotation Yrotation Zrotation
						End Site
						{
							OFFSET	1	0	0
						}
					}
				}
			}
		}
	}
}
MOTION
Frames: 8
Frame Time: 0.02
1535.03 693.201 -859.372 -174.229 -57.7334 -172.586 -0.680153 0.165824 -0.123844 -0.680162 0.173368 -0.113041 -0.680521 0.194121 -0.0717775 -0.680483 0.180349 -0.101535 1.0126 13.2634 1.80823 1.404 22.0163 3.13939 -0.0 0.0 -0.0 9.13291 -3.61963 17.9667 -33.0394 -19.1 64.8067 0.655606 -17.9922 0.103793 9.89779 0.242179 -1.23959 2.0232 21.718 21.0585 -0.0 0.0 -0.0 9.32368 10.5422 -18.3496 1.48201 26.2502 -48.8233 1.5553 37.6098 -0.529645 33.1073 0.0400935 4.17078 1.27468 -3.245 -9.84035 0.0 0.0 0.0 33.7237 -7.90189 -6.39398 -11.3067 0.29794 1.70681 6.30768 24.7144 -0.946863 -36.3649 0.0 0.0 -0.0 0.0 -0.0 -2.6534 18.4343 -4.33977 -31.4238 0.0130994 -4.76246 35.094 0.305861 4.43058 2.6831 -0.0 -0.0 0.0 0.0 0.0 
1567.82 698.438 -860.898 -174.885 -57.6106 -172.755 -0.835276 0.0175839 -0.176949 -0.835259 0.028808 -0.175472 -0.835339 0.0674506 -0.164532 -0.835375 0.0406194 -0.173119 3.60724 12.6659 0.249779 4.12744 21.7949 0.996807 -0.0 0.0 -0.0 9.39397 -2.5656 18.491 -32.6345 -19.8454 64.0731 0.667352 -18.2933 0.107451 10.1942 0.246109 -1.27725 1.8743 21.1655 19.9599 -0.0 0.0 -0.0 9.15983 9.86842 -18.0085 -0.920024 25.4288 -48.1487 1.56382 37.7612 -0.534851 33.1549 0.0418838 4.17659 1.36778 -3.19419 -10.4465 0.0 0.0 0.0 32.397 -7.18676 -6.10388 -11.7135 0.302343 1.76907 5.5643 25.4567 -0.840276 -36.1193 0.0 0.0 -0.0 0.0 -0.0 -3.83583 19.272 -3.55459 -31.6743 0.0236955 -4.79943 33.3117 -1.05563 4.24586 2.60276 -0.0 -0.0 0.0 0.0 0.0 
1588.23 700.222 -858.312 -175.094 -56.3565 -172.721 -0.720829 0.0202541 -0.134525 -0.720819 0.0287732 -0.132964 -0.720882 0.0576314 -0.123231 -0.720902 0.0374461 -0.130786 3.60713 13.1314 -0.385841 4.2142 23.1494 0.289471 -0.0 0.0 -0.0 9.34174 -3.57343 18.4031 -31.1685 -19.0373 62.693 0.679101 -18.5934 0.111168 10.4112 0.248861 -1.30483 1.9807 22.0455 20.8787 -0.0 0.0 -0.0 9.19591 9.76359 -18.0885 -2.22965 24.9063 -48.8313 1.54521 37.4297 -0.523498 32.6744 0.0240212 4.11784 1.40867 -3.18804 -10.7196 0.0 0.0 0.0 32.0439 -6.70602 -6.79615 -14.8921 0.321501 2.25634 5.21463 24.5989 -0.784641 -35.5965 0.0 0.0 -0.0 0.0 -0.0 -3.07573 18.7448 -3.75876 -34.5412 0.156485 -5.21922 34.0568 -1.33186 4.31829 2.79203 -0.0 -0.0 0.0 0.0 0.0 
1615.75 702.282 -859.571 -174.747 -55.6757 -171.963 -0.774973 -0.164566 -0.310514 -0.77493 -0.144474 -0.320357 -0.774066 -0.0692691 -0.344533 -0.774211 -0.122812 -0.329269 3.87551 13.3386 -0.507575 4.52407 23.5665 0.114377 -0.0 0.0 -0.0 9.55084 -3.54121 18.8414 -30.367 -19.1944 62.4105 0.697211 -19.0538 0.117011 10.4339 0.249143 -1.30771 1.89773 22.0879 20.3668 -0.0 0.0 -0.0 8.93826 9.4225 -17.5391 -3.54911 24.2992 -49.1255 1.51928 36.9628 -0.507822 32.5773 0.0204678 4.10594 1.45599 -3.19883 -11.0429 0.0 0.0 0.0 31.0254 -6.40552 -6.58934 -15.5915 0.322087 2.36364 5.2254 24.6717 -0.786534 -35.1779 0.0 0.0 -0.0 0.0 -0.0 -3.01957 18.8069 -3.15791 -34.6189 0.160377 -5.23051 34.6238 -1.5318 4.37278 2.71807 -0.0 -0.0 0.0 0.0 0.0 
1659.23 715.056 -842.054 179.916 -56.791 -176.213 -1.33303 -0.161676 -0.450787 -1.33293 -0.132664 -0.460161 -1.33174 -0.0218755 -0.478403 -1.33205 -0.097155 -0.468944 4.08859 13.9258 3.15 4.57104 21.401 4.28554 -0.0 0.0 -0.0 9.70626 -2.76698 19.149 -28.9488 -19.093 60.1771 0.706817 -19.297 0.120166 7.17357 0.196957 -0.894575 0.667657 20.6546 12.3367 -0.0 0.0 -0.0 8.61059 9.28514 -16.8382 -7.35716 23.1487 -50.4096 1.35246 33.8192 -0.411175 32.1393 0.00470451 4.05222 1.47561 -3.8129 -11.4145 0.0 0.0 0.0 26.8 -5.99328 -6.26882 -21.8456 0.269145 3.32131 4.76474 25.2827 -0.720381 -34.4649 0.0 0.0 -0.0 0.0 -0.0 -1.60439 19.96 -3.03241 -39.9718 0.464971 -5.99433 36.8759 -1.80578 4.58565 2.63979 -0.0 -0.0 0.0 0.0 0.0 
1692.39 723.441 -830.912 175.983 -59.441 -179.334 -1.77795 -0.140323 -0.58251 -1.77777 -0.102972 -0.590258 -1.77649 0.041935 -0.597703 -1.77699 -0.0529857 -0.596825 3.31389 13.8182 4.43686 3.72018 20.2836 5.81573 -0.0 0.0 -0.0 9.58949 1.04988 18.7625 -26.3053 -19.109 56.2322 0.772399 -20.938 0.142725 7.13058 0.196111 -0.889149 0.466557 19.2115 10.6056 -0.0 0.0 -0.0 8.66045 8.01769 -16.9678 -10.507 22.1717 -50.5863 1.16813 30.0551 -0.313613 32.3358 0.011727 4.07634 1.5565 -3.89287 -11.9914 0.0 0.0 0.0 23.6368 -5.22274 -5.10229 -24.7292 0.209608 3.75975 8.93249 25.7469 -1.3382 -32.3191 0.0 0.0 -0.0 0.0 -0.0 -1.28109 19.1951 -3.96498 -44.9806 0.813644 -6.68099 37.3145 -3.1292 4.62091 2.88316 -0.0 -0.0 0.0 0.0 0.0 
1705.37 729.291 -823.097 174.683 -61.807 179.513 -1.75519 -0.2415 -0.779074 -1.75487 -0.191438 -0.792862 -1.75182 0.0044086 -0.815632 -1.75273 -0.124456 -0.806094 2.09668 13.5049 5.30594 2.43891 19.2811 6.87648 -0.0 0.0 -0.0 9.66236 -1.4969 19.018 -24.9288 -19.4133 53.7121 0.993461 -26.2027 0.231216 3.56049 0.111771 -0.440971 0.337393 20.4048 10.2519 -0.0 0.0 -0.0 8.69913 9.22173 -17.0293 -12.4139 21.6153 -51.8983 1.05332 27.5541 -0.25828 34.7133 0.103211 4.36611 1.31103 -6.12081 -11.1989 0.0 0.0 0.0 21.75 -5.61057 -4.7342 -23.9145 0.228665 3.63618 11.5257 25.6067 -1.71141 -33.5492 0.0 0.0 -0.0 0.0 -0.0 4.44366 18.3234 -6.81033 -55.8887 1.77278 -8.05715 39.8078 -5.27958 4.8412 3.81353 -0.0 -0.0 0.0 0.0 0.0 
1733.57 735.736 -811.824 173.744 -63.139 178.623 -1.88429 -0.0807159 -0.809967 -1.88392 -0.0290138 -0.813461 -1.88316 0.168872 -0.796269 -1.88404 0.0410014 -0.812945 1.66576 12.3985 7.5926 1.94164 15.4861 9.34269 -0.0 0.0 -0.0 9.50661 1.51086 18.5717 -22.6953 -19.9087 51.0715 1.15519 -29.7791 0.307156 0.213879 0.00748667 -0.0262891 -0.417769 19.1832 5.24492 -0.0 0.0 -0.0 8.79151 11.1605 -17.1795 -14.4676 20.7634 -53.8058 0.842337 22.6491 -0.168694 35.2993 0.127603 4.43694 0.991601 -6.88205 -9.36982 0.0 0.0 0.0 19.3808 -5.8542 -4.60323 -24.4878 0.215437 3.72317 13.082 23.4434 -1.91054 -33.9488 0.0 0.0 -0.0 0.0 -0.0 8.79528 17.2682 -8.65159 -61.8192 2.39959 -8.72276 40.9734 -7.6907 4.94706 7.28338 -0.0 -0.0 0.0 0.0 0.0 
